HIERARCHY
ROOT Hips
{
	OFFSET 0.000000 71.427986 0.000000
	CHANNELS 6 Xposition Yposition Zposition Xrotation Yrotation Zrotation
	JOINT Pelvis
	{
		OFFSET 0.000000 0.000000 0.000000
		CHANNELS 3 Xrotation Yrotation Zrotation
		JOINT LeftUpLeg
		{
			OFFSET 6.797100 -2.508499 -1.318700
			CHANNELS 3 Xrotation Yrotation Zrotation
			JOINT LeftLeg
			{
				OFFSET 0.069008 -29.241863 0.690200
				CHANNELS 3 Xrotation Yrotation Zrotation
				JOINT LeftFoot
				{
					OFFSET -0.069008 -29.568123 -0.266800
					CHANNELS 3 Xrotation Yrotation Zrotation
					JOINT LeftToeBase
					{
						OFFSET 3.145500 -8.631000 16.059900
						CHANNELS 3 Xrotation Yrotation Zrotation
						End Site
						{
							OFFSET 0.000000 18.501587 0.000000
						}
					}
				}
			}
			JOINT Left_ShortSleeve
			{
				OFFSET 0.265923 -10.480953 1.153800
				CHANNELS 3 Xrotation Yrotation Zrotation
				End Site
				{
					OFFSET 1.725763 19.823879 0.000000
				}
			}
		}
		JOINT RightUpLeg
		{
			OFFSET -6.797100 -2.508499 -1.318700
			CHANNELS 3 Xrotation Yrotation Zrotation
			JOINT RightLeg
			{
				OFFSET -0.082453 -29.241932 0.688000
				CHANNELS 3 Xrotation Yrotation Zrotation
				JOINT RightFoot
				{
					OFFSET 0.082453 -29.568058 -0.264600
					CHANNELS 3 Xrotation Yrotation Zrotation
					JOINT RightToeBase
					{
						OFFSET -3.115300 -8.682800 16.113400
						CHANNELS 3 Xrotation Yrotation Zrotation
						End Site
						{
							OFFSET 0.000000 18.567114 0.000000
						}
					}
				}
			}
			JOINT Right_ShortSleeve
			{
				OFFSET -0.265923 -10.480953 1.153800
				CHANNELS 3 Xrotation Yrotation Zrotation
				End Site
				{
					OFFSET -1.725766 19.823910 0.000000
				}
			}
		}
	}
	JOINT Spine
	{
		OFFSET 0.000000 13.368103 0.470500
		CHANNELS 3 Xrotation Yrotation Zrotation
		JOINT Spine1
		{
			OFFSET 0.147000 13.837402 0.538800
			CHANNELS 3 Xrotation Yrotation Zrotation
			JOINT Spine2
			{
				OFFSET 0.168000 16.242897 -1.435500
				CHANNELS 3 Xrotation Yrotation Zrotation
				JOINT Neck
				{
					OFFSET 0.217200 18.631500 -1.679100
					CHANNELS 3 Xrotation Yrotation Zrotation
					JOINT Head
					{
						OFFSET 0.000000 6.599396 1.385900
						CHANNELS 3 Xrotation Yrotation Zrotation
						JOINT Hat
						{
							OFFSET -0.532200 27.220596 -10.096100
							CHANNELS 3 Xrotation Yrotation Zrotation
							End Site
							{
								OFFSET 0.000000 22.029861 0.000000
							}
						}
						JOINT HairD
						{
							OFFSET -10.777400 17.437393 -1.325900
							CHANNELS 3 Xrotation Yrotation Zrotation
							JOINT HairD1
							{
								OFFSET -3.290299 -11.051193 1.062200
								CHANNELS 3 Xrotation Yrotation Zrotation
								End Site
								{
									OFFSET 0.000000 11.579437 0.000000
								}
							}
						}
						JOINT HairB
						{
							OFFSET -10.777400 17.437393 1.467900
							CHANNELS 3 Xrotation Yrotation Zrotation
							JOINT HairB1
							{
								OFFSET -1.561200 -12.956299 3.590200
								CHANNELS 3 Xrotation Yrotation Zrotation
								End Site
								{
									OFFSET 0.000000 13.534866 0.000000
								}
							}
						}
						JOINT HairA
						{
							OFFSET 9.713100 17.437393 1.467900
							CHANNELS 3 Xrotation Yrotation Zrotation
							JOINT HairA1
							{
								OFFSET 1.561200 -12.956299 3.590200
								CHANNELS 3 Xrotation Yrotation Zrotation
								End Site
								{
									OFFSET 0.000000 13.534866 0.000000
								}
							}
						}
						JOINT HairC
						{
							OFFSET 9.713100 17.437393 -1.325900
							CHANNELS 3 Xrotation Yrotation Zrotation
							JOINT HairC1
							{
								OFFSET 3.290300 -11.051193 1.062200
								CHANNELS 3 Xrotation Yrotation Zrotation
								End Site
								{
									OFFSET 0.000000 11.579437 0.000000
								}
							}
						}
					}
				}
				JOINT LeftShoulder
				{
					OFFSET 5.101800 15.108002 -2.763700
					CHANNELS 3 Xrotation Yrotation Zrotation
					JOINT LeftArm
					{
						OFFSET 9.825497 2.506317 -1.597400
						CHANNELS 3 Xrotation Yrotation Zrotation
						JOINT LeftForeArm
						{
							OFFSET 21.966244 0.000000 0.000000
							CHANNELS 3 Xrotation Yrotation Zrotation
							JOINT LeftHand
							{
								OFFSET 33.879036 0.000000 0.000000
								CHANNELS 3 Xrotation Yrotation Zrotation
								JOINT LeftHandThumb1
								{
									OFFSET 6.715286 -2.359680 3.363841
									CHANNELS 3 Xrotation Yrotation Zrotation
									JOINT LeftHandThumb2
									{
										OFFSET 2.507072 -1.447464 1.447461
										CHANNELS 3 Xrotation Yrotation Zrotation
										JOINT LeftHandThumb3
										{
											OFFSET 2.898338 -1.673355 1.673357
											CHANNELS 3 Xrotation Yrotation Zrotation
											End Site
											{
												OFFSET -0.295959 3.727692 -0.131651
											}
										}
									}
								}
								JOINT LeftHandIndex1
								{
									OFFSET 14.190811 -0.254547 3.840278
									CHANNELS 3 Xrotation Yrotation Zrotation
									JOINT LeftHandIndex2
									{
										OFFSET 3.551727 0.000000 -0.000000
										CHANNELS 3 Xrotation Yrotation Zrotation
										JOINT LeftHandIndex3
										{
											OFFSET 2.894196 0.000000 0.000000
											CHANNELS 3 Xrotation Yrotation Zrotation
											End Site
											{
												OFFSET -1.000603 2.690872 0.366626
											}
										}
									}
								}
								JOINT LeftHandMiddle1
								{
									OFFSET 13.776489 0.000000 0.000000
									CHANNELS 3 Xrotation Yrotation Zrotation
									JOINT LeftHandMiddle2
									{
										OFFSET 3.438232 0.000000 0.000000
										CHANNELS 3 Xrotation Yrotation Zrotation
										JOINT LeftHandMiddle3
										{
											OFFSET 3.691551 0.000000 0.000000
											CHANNELS 3 Xrotation Yrotation Zrotation
											End Site
											{
												OFFSET -1.082298 3.499527 0.457670
											}
										}
									}
								}
								JOINT LeftHandRing1
								{
									OFFSET 13.966164 -0.268127 -3.067488
									CHANNELS 3 Xrotation Yrotation Zrotation
									JOINT LeftHandRing2
									{
										OFFSET 3.162567 0.000000 0.000000
										CHANNELS 3 Xrotation Yrotation Zrotation
										JOINT LeftHandRing3
										{
											OFFSET 3.324348 0.000000 0.000000
											CHANNELS 3 Xrotation Yrotation Zrotation
											End Site
											{
												OFFSET -0.861900 3.184998 0.405154
											}
										}
									}
								}
								JOINT LeftHandPinky1
								{
									OFFSET 13.131393 -0.168503 -5.746925
									CHANNELS 3 Xrotation Yrotation Zrotation
									JOINT LeftHandPinky2
									{
										OFFSET 2.849182 0.000000 0.000000
										CHANNELS 3 Xrotation Yrotation Zrotation
										JOINT LeftHandPinky3
										{
											OFFSET 2.805038 0.000000 0.000000
											CHANNELS 3 Xrotation Yrotation Zrotation
											End Site
											{
												OFFSET -0.882500 2.642609 0.325652
											}
										}
									}
								}
							}
							JOINT Left_Sleeve
							{
								OFFSET 6.592125 -0.646545 0.805568
								CHANNELS 3 Xrotation Yrotation Zrotation
								End Site
								{
									OFFSET -0.000179 20.275787 -0.000000
								}
							}
						}
					}
				}
				JOINT RightShoulder
				{
					OFFSET -5.731700 15.108002 -2.763700
					CHANNELS 3 Xrotation Yrotation Zrotation
					JOINT RightArm
					{
						OFFSET -9.825497 2.506317 -1.597400
						CHANNELS 3 Xrotation Yrotation Zrotation
						JOINT RightForeArm
						{
							OFFSET -21.966242 0.000000 0.000000
							CHANNELS 3 Xrotation Yrotation Zrotation
							JOINT RightHand
							{
								OFFSET -33.879032 0.000000 0.000000
								CHANNELS 3 Xrotation Yrotation Zrotation
								JOINT RightHandThumb1
								{
									OFFSET -6.715286 -2.359680 3.363841
									CHANNELS 3 Xrotation Yrotation Zrotation
									JOINT RightHandThumb2
									{
										OFFSET -2.507072 -1.447464 1.447461
										CHANNELS 3 Xrotation Yrotation Zrotation
										JOINT RightHandThumb3
										{
											OFFSET -2.898338 -1.673355 1.673357
											CHANNELS 3 Xrotation Yrotation Zrotation
											End Site
											{
												OFFSET 0.295959 3.727692 -0.131651
											}
										}
									}
								}
								JOINT RightHandIndex1
								{
									OFFSET -14.190811 -0.254547 3.840278
									CHANNELS 3 Xrotation Yrotation Zrotation
									JOINT RightHandIndex2
									{
										OFFSET -3.551727 0.000000 -0.000000
										CHANNELS 3 Xrotation Yrotation Zrotation
										JOINT RightHandIndex3
										{
											OFFSET -2.894196 0.000000 0.000000
											CHANNELS 3 Xrotation Yrotation Zrotation
											End Site
											{
												OFFSET 1.000603 2.690872 0.366626
											}
										}
									}
								}
								JOINT RightHandMiddle1
								{
									OFFSET -13.776489 0.000000 0.000000
									CHANNELS 3 Xrotation Yrotation Zrotation
									JOINT RightHandMiddle2
									{
										OFFSET -3.438232 0.000000 0.000000
										CHANNELS 3 Xrotation Yrotation Zrotation
										JOINT RightHandMiddle3
										{
											OFFSET -3.691551 0.000000 0.000000
											CHANNELS 3 Xrotation Yrotation Zrotation
											End Site
											{
												OFFSET 1.082298 3.499527 0.457670
											}
										}
									}
								}
								JOINT RightHandRing1
								{
									OFFSET -13.966164 -0.268127 -3.067488
									CHANNELS 3 Xrotation Yrotation Zrotation
									JOINT RightHandRing2
									{
										OFFSET -3.162567 0.000000 0.000000
										CHANNELS 3 Xrotation Yrotation Zrotation
										JOINT RightHandRing3
										{
											OFFSET -3.324348 0.000000 0.000000
											CHANNELS 3 Xrotation Yrotation Zrotation
											End Site
											{
												OFFSET 0.861900 3.184998 0.405154
											}
										}
									}
								}
								JOINT RightHandPinky1
								{
									OFFSET -13.131393 -0.168503 -5.746925
									CHANNELS 3 Xrotation Yrotation Zrotation
									JOINT RightHandPinky2
									{
										OFFSET -2.849182 0.000000 0.000000
										CHANNELS 3 Xrotation Yrotation Zrotation
										JOINT RightHandPinky3
										{
											OFFSET -2.805038 0.000000 0.000000
											CHANNELS 3 Xrotation Yrotation Zrotation
											End Site
											{
												OFFSET 0.882500 2.642609 0.325652
											}
										}
									}
								}
							}
							JOINT Right_Sleeve
							{
								OFFSET -6.592125 -0.646545 0.805568
								CHANNELS 3 Xrotation Yrotation Zrotation
								End Site
								{
									OFFSET 0.000179 20.275787 -0.000000
								}
							}
						}
					}
				}
				JOINT Bind_Right_JacketString
				{
					OFFSET -3.534800 11.969597 7.200700
					CHANNELS 3 Xrotation Yrotation Zrotation
					JOINT Bind_Right_JacketString1
					{
						OFFSET -0.319900 -6.102600 2.794100
						CHANNELS 3 Xrotation Yrotation Zrotation
						End Site
						{
							OFFSET 0.000000 6.719452 0.000000
						}
					}
				}
				JOINT Bind_Left_JacketString
				{
					OFFSET 2.904800 11.969597 7.200700
					CHANNELS 3 Xrotation Yrotation Zrotation
					JOINT Bind_Left_JacketString1
					{
						OFFSET 0.364800 -5.904503 3.186800
						CHANNELS 3 Xrotation Yrotation Zrotation
						End Site
						{
							OFFSET 0.000000 6.719513 0.000000
						}
					}
				}
				JOINT HairE
				{
					OFFSET 5.915200 17.612701 -11.592200
					CHANNELS 3 Xrotation Yrotation Zrotation
					JOINT HairE1
					{
						OFFSET 0.289200 -7.171898 -1.284500
						CHANNELS 3 Xrotation Yrotation Zrotation
						End Site
						{
							OFFSET 0.000000 7.291756 0.000000
						}
					}
				}
				JOINT HairF
				{
					OFFSET -0.864800 17.612701 -11.592200
					CHANNELS 3 Xrotation Yrotation Zrotation
					JOINT HairF1
					{
						OFFSET 0.000000 -14.087097 -2.127501
						CHANNELS 3 Xrotation Yrotation Zrotation
						End Site
						{
							OFFSET 0.000000 14.246841 0.000000
						}
					}
				}
				JOINT HairG
				{
					OFFSET -8.087700 17.612701 -11.592200
					CHANNELS 3 Xrotation Yrotation Zrotation
					JOINT HairG1
					{
						OFFSET -0.293600 -6.081398 -0.910100
						CHANNELS 3 Xrotation Yrotation Zrotation
						End Site
						{
							OFFSET 0.000000 6.156120 0.000000
						}
					}
				}
			}
		}
	}
	JOINT Pouch
	{
		OFFSET 0.000000 4.394501 10.847300
		CHANNELS 3 Xrotation Yrotation Zrotation
		End Site
		{
			OFFSET 0.000000 21.880577 0.000000
		}
	}
	JOINT Bag
	{
		OFFSET -13.229000 4.813004 -0.593300
		CHANNELS 3 Xrotation Yrotation Zrotation
		End Site
		{
			OFFSET 0.000000 21.880577 0.000000
		}
	}
	JOINT OccupyGuyFacialAnim_Joint
	{
		OFFSET 1.000000 -70.206398 -1.655000
		CHANNELS 3 Xrotation Yrotation Zrotation
		End Site
		{
			OFFSET 0.000000 21.880577 0.000000
		}
	}
}
MOTION
Frames: 4
Frame Time: 0.033333
56.591000 34.010635 45.616112 -50.931361 8.273124 6.479065 -0.000000 0.000000 0.000000 -51.661833 5.394826 11.353121 123.665493 -3.895485 0.259586 -22.618040 -6.541459 10.988426 0.000000 -0.000000 -0.000000 0.000001 -0.000001 -0.000003 -40.049716 -4.053587 -12.735710 40.426718 -2.142743 -4.919974 36.823155 -17.370038 6.665632 -0.000001 0.000000 0.000001 -0.000000 0.000000 -0.000000 72.658965 -0.498603 14.220736 11.059714 -4.628826 3.713464 10.864266 -5.136665 4.723309 -1.187169 2.469441 -1.793823 -32.263041 11.101838 -1.730894 0.000001 0.000000 -0.000000 0.000001 0.000000 -0.000000 0.000001 0.000000 0.000000 0.000001 0.000000 -0.000000 0.000001 0.000000 -0.000000 0.000001 0.000000 -0.000000 0.000001 0.000000 -0.000000 0.000001 0.000000 -0.000000 0.000001 0.000000 -0.000000 6.113129 -47.459395 -2.826163 -21.175967 14.479342 8.554674 -0.000055 -72.100549 -0.000034 11.636793 13.714983 -5.533843 11.828528 0.061106 -4.089037 8.366813 23.825201 4.823677 -0.000002 -0.000000 0.000003 0.607458 -2.813430 -9.537657 0.515702 2.405303 -24.198756 0.000002 -0.000000 -0.000004 -0.921457 1.076102 -22.232532 0.777536 2.918342 -29.832371 0.000000 -0.000001 -0.000003 2.217147 7.214970 -35.979719 1.375349 3.772498 -40.048920 -0.000001 -0.000001 -0.000000 3.313782 18.748267 -42.751534 1.593615 4.017323 -43.261438 -0.000001 -0.000000 -0.000001 -0.000001 0.000000 -0.000001 -6.033843 39.356131 29.133458 -43.896205 -8.479294 24.805162 0.000001 21.199464 0.000010 -22.712834 6.278479 -23.400090 -12.155117 16.570826 -8.184070 6.488252 -14.865246 -2.273706 0.000001 -0.000001 -0.000000 10.734818 7.832956 -19.290811 0.002513 -0.153143 1.880258 -0.000000 0.000000 -0.000005 0.367630 -0.558482 -18.297547 0.001776 -0.128861 1.582069 0.000000 0.000001 -0.000001 -1.268843 -5.989675 -16.869112 0.021322 -0.445671 5.479298 0.000004 0.000001 -0.000003 -9.422482 -10.330209 -14.898507 0.007824 -0.270063 3.317100 -0.000001 -0.000001 0.000000 0.000000 0.000001 0.000000 -0.000001 0.000000 -0.000000 -0.000001 -0.000000 0.000001 -0.000001 0.000000 -0.000000 -0.000001 0.000000 -0.000000 -0.000001 0.000000 -0.000000 -0.000001 -0.000000 0.000001 -0.000001 0.000000 -0.000000 -0.000001 0.000000 -0.000000 -0.000001 0.000000 -0.000000 -0.000001 -0.000000 0.000001 -0.000000 0.000000 0.000000 -0.000000 0.000000 0.000000 -0.000000 0.000000 0.000000 
57.193542 30.790199 47.444920 -53.913197 4.747185 11.342531 -0.000001 0.000000 0.000001 -52.089997 12.872829 9.129656 130.554790 -4.279417 1.882618 -25.788836 -2.586174 12.016453 -0.000000 0.000000 0.000000 -0.000001 0.000000 -0.000001 -47.626974 -9.709116 -8.404539 56.132861 -2.201610 0.919837 35.510983 -25.189067 6.123081 -0.000001 0.000002 0.000000 0.000000 0.000001 0.000000 73.248561 -2.836605 12.483786 11.094965 -4.806214 3.246038 10.934808 -5.303099 4.268449 -1.158601 2.457992 -2.495927 -27.875703 9.957892 -4.994448 0.000002 -0.000000 0.000001 0.000002 -0.000000 0.000001 0.000002 -0.000000 0.000001 0.000002 -0.000000 -0.000000 0.000002 -0.000001 -0.000001 0.000002 -0.000000 -0.000000 0.000002 -0.000001 -0.000001 0.000002 -0.000000 0.000001 0.000002 -0.000000 0.000001 8.678538 -51.533306 -0.152783 -20.847624 10.756173 10.699991 -0.000035 -75.079079 -0.000039 13.672901 6.293527 -8.638977 14.454203 1.965438 -7.018687 8.211381 22.555914 4.671576 0.000003 -0.000002 -0.000002 0.495933 -1.681171 -13.583870 0.696862 2.773028 -28.207230 0.000001 0.000000 -0.000002 -0.953191 1.603006 -25.956136 1.143757 3.479021 -36.388489 -0.000003 0.000002 -0.000001 2.318423 7.169192 -39.922261 2.099143 4.492974 -50.066502 -0.000002 0.000002 -0.000001 3.722713 18.163978 -47.917230 2.416477 4.739776 -54.007907 -0.000002 0.000000 0.000003 -0.000000 -0.000002 0.000002 -4.741164 38.921597 27.201117 -37.555901 -10.077219 31.627526 0.000001 18.270637 -0.000005 -23.090976 1.192258 -24.846097 -14.575822 18.455936 -8.134340 6.413881 -14.902585 -2.151098 -0.000004 -0.000001 0.000001 13.619240 9.240695 -28.339754 0.000000 -0.000002 0.000016 0.000001 -0.000001 0.000005 0.523031 -0.217800 -28.882479 0.000003 0.000004 -0.000011 -0.000000 -0.000001 0.000004 -2.762697 -6.452714 -28.082295 0.005560 -0.227743 2.796871 -0.000002 -0.000003 0.000003 -12.514722 -9.903143 -26.070386 0.000034 -0.017573 0.215684 -0.000001 -0.000001 0.000000 0.000000 0.000001 -0.000000 -0.000001 0.000000 -0.000001 -0.000001 0.000001 0.000001 -0.000001 0.000000 -0.000001 -0.000001 0.000000 -0.000001 -0.000001 0.000000 -0.000001 -0.000001 0.000001 0.000001 -0.000001 0.000000 -0.000001 -0.000001 0.000000 -0.000001 -0.000001 0.000000 -0.000001 -0.000001 0.000001 0.000001 -0.000001 0.000000 0.000001 -0.000001 0.000000 0.000001 -0.000001 0.000000 0.000001 
57.833290 27.614414 49.267414 -56.491692 0.630436 16.780677 -0.000001 0.000001 0.000000 -52.638048 23.683449 9.253790 136.999101 -4.732101 3.855445 -28.419965 0.767604 15.484355 -0.000000 0.000000 0.000000 -0.000002 -0.000000 0.000000 -49.389719 -17.863778 -2.631593 70.378604 -1.825067 5.441840 22.127364 -23.924870 -8.068876 0.000000 0.000001 -0.000000 0.000001 -0.000002 -0.000000 72.818033 -5.694119 10.044690 10.971358 -4.934374 2.663946 10.857672 -5.416368 3.673635 -1.136652 2.444671 -3.152679 -21.976933 7.900755 -7.786586 0.000002 0.000000 -0.000000 0.000002 0.000000 -0.000000 0.000002 0.000000 0.000000 0.000002 0.000000 -0.000000 0.000000 0.000000 0.000000 0.000002 0.000000 -0.000000 0.000000 0.000000 0.000000 0.000002 0.000000 -0.000000 0.000002 0.000000 -0.000000 11.345442 -54.266748 2.674480 -20.208747 7.949408 11.149529 -0.000250 -79.984124 -0.000256 11.930411 -0.743006 -12.022068 12.986567 1.952770 -6.190820 7.883466 20.920297 4.242494 0.000003 -0.000002 -0.000002 0.540992 -0.772848 -13.598509 0.680177 2.741740 -27.860304 -0.000002 -0.000001 -0.000000 -0.745271 2.019095 -25.821822 1.122221 3.449646 -36.031758 0.000003 0.000001 -0.000001 2.081373 6.905339 -39.313438 2.083558 4.479945 -49.867672 -0.000001 -0.000002 0.000001 2.827124 16.463797 -46.619043 2.376865 4.710847 -53.527042 -0.000001 -0.000002 0.000001 -0.000000 -0.000000 -0.000002 -2.056700 35.684023 25.157499 -36.118201 -12.146069 39.217430 -0.000001 18.646717 0.000005 -15.017283 -2.072990 -34.089956 -14.336910 18.275232 -8.142990 6.415129 -14.912854 -2.151991 0.000001 -0.000002 0.000002 18.427774 11.597870 -44.527294 -0.000000 -0.000001 -0.000000 -0.000001 0.000001 0.000000 1.246016 0.848607 -44.928851 0.000001 0.000001 -0.000004 0.000000 0.000000 0.000001 -6.090699 -6.813112 -44.381039 0.004989 -0.215781 2.649883 -0.000002 -0.000001 0.000001 -19.003360 -10.730548 -42.720115 0.000002 0.000005 0.000005 -0.000000 0.000001 0.000001 0.000000 0.000001 -0.000000 -0.000002 0.000000 -0.000002 -0.000002 -0.000001 -0.000001 -0.000002 0.000000 -0.000001 -0.000002 0.000000 -0.000001 -0.000002 0.000000 -0.000002 -0.000002 -0.000001 -0.000001 -0.000002 0.000000 -0.000001 -0.000002 0.000000 -0.000001 -0.000002 0.000000 -0.000002 -0.000002 -0.000001 -0.000001 -0.000001 0.000001 0.000000 -0.000001 0.000001 0.000000 -0.000001 0.000001 0.000000 
58.493740 24.831463 50.974064 -57.877718 -2.947215 22.695474 0.000002 -0.000001 -0.000000 -53.979931 35.843074 9.625938 142.214934 -3.482521 5.744808 -29.669034 5.091115 18.837061 -0.000000 -0.000000 0.000000 0.000001 0.000002 0.000001 -48.446788 -27.690883 1.092085 79.674676 0.521434 7.328036 18.963255 -30.269640 -7.102369 0.000000 0.000000 0.000001 -0.000003 0.000002 -0.000000 70.750057 -10.550855 7.623831 10.507556 -5.191426 1.579411 10.465195 -5.560264 2.493382 -0.712739 2.241142 -2.617615 -16.071968 6.616318 -8.281451 0.000002 0.000000 -0.000000 0.000002 0.000000 -0.000000 0.000002 0.000000 0.000000 0.000002 0.000000 -0.000000 0.000000 0.000001 0.000000 0.000002 0.000000 -0.000000 0.000000 0.000001 0.000000 0.000002 0.000000 -0.000000 0.000002 0.000000 -0.000000 12.406865 -55.652825 3.593304 -19.104399 8.627679 10.371624 -0.000273 -87.451789 -0.000351 5.487344 -5.909431 -15.141922 9.355526 0.865202 -3.597283 7.448332 18.974576 3.628039 0.000002 0.000001 -0.000001 0.570917 0.107630 -11.670803 0.566813 2.515859 -25.389191 0.000004 0.000002 -0.000003 -0.446092 2.434272 -23.819885 0.908913 3.135995 -32.319554 0.000009 0.000002 -0.000001 1.694777 6.488099 -36.470160 1.698306 4.125459 -44.736021 0.000001 0.000003 0.000002 1.585917 13.953329 -42.178092 1.909723 4.327856 -47.603915 0.000000 0.000000 0.000001 0.000001 -0.000001 0.000002 0.970389 30.250587 22.269173 -30.345202 -20.961308 49.386533 -0.000001 36.211153 0.000003 -5.119210 -11.569313 -40.757539 -13.979994 18.014388 -8.162591 6.417271 -14.930450 -2.153478 -0.000001 -0.000001 0.000003 20.814209 12.096712 -50.929179 0.000001 0.000003 0.000002 -0.000000 -0.000002 -0.000000 1.639482 1.233547 -51.120267 0.000001 0.000000 -0.000001 -0.000000 -0.000000 -0.000001 -7.594614 -6.569600 -50.580580 0.005882 -0.234230 2.876586 -0.000000 -0.000001 -0.000001 -21.983104 -10.412363 -49.021039 0.000002 0.000001 0.000010 -0.000001 0.000004 0.000001 0.000000 0.000001 0.000001 -0.000002 0.000000 0.000001 -0.000000 0.000000 -0.000001 -0.000002 0.000000 0.000001 -0.000002 0.000000 0.000001 -0.000002 0.000000 0.000001 -0.000000 0.000000 -0.000000 -0.000002 0.000000 0.000001 -0.000002 0.000000 0.000001 -0.000002 0.000000 0.000001 -0.000000 0.000000 -0.000000 0.000002 -0.000001 -0.000000 0.000002 -0.000001 -0.000000 0.000002 -0.000001 -0.000000 
